<svg id="outline" xmlns="http://www.w3.org/2000/svg" viewBox="0 0 24 24"><defs><style>.cls-1{fill:none;stroke:#000;stroke-linecap:round;stroke-linejoin:round;stroke-width:2px;}</style></defs><path class="cls-1" d="M15.42,8.67V10a3,3,0,0,1-1.19,2.41l-.88.67a2.61,2.61,0,0,1-3.14,0l-.87-.67A3,3,0,0,1,8.14,10V8.67a3.35,3.35,0,0,1,3.35-3.35h.59a3.33,3.33,0,0,1,3.34,3.35Z"/><path class="cls-1" d="M6.14,19.57a5.86,5.86,0,0,1,11.72,0C17.86,22.81,6.14,22.81,6.14,19.57Z"/><path class="cls-1" d="M14.54,4.17V6.29h-.1a3.35,3.35,0,0,0-2.36-1h-.59a3.35,3.35,0,0,0-2.36,1H9V4.17A2.17,2.17,0,0,1,11.19,2h1.18A2.17,2.17,0,0,1,14.54,4.17Z"/><line class="cls-1" x1="12" y1="17.66" x2="9.02" y2="14.68"/><line class="cls-1" x1="12" y1="17.66" x2="14.98" y2="14.68"/></svg>