<svg id="Layer_2" data-name="Layer 2" xmlns="http://www.w3.org/2000/svg" viewBox="0 0 24 24"><defs><style>.cls-1{fill:none;stroke:#000;stroke-linecap:round;stroke-linejoin:round;stroke-width:2px;}</style></defs><polygon class="cls-1" points="14.66 12.51 12.52 14.65 5.63 7.79 7.78 5.66 14.66 12.51"/><line class="cls-1" x1="4.07" y1="5.78" x2="5.75" y2="4.1"/><line class="cls-1" x1="1.5" y1="1.54" x2="4.91" y2="4.94"/><polygon class="cls-1" points="17.29 13.2 13.21 17.26 11.55 15.61 15.63 11.55 17.29 13.2"/><path class="cls-1" d="M22.3,19.42l-2.85,2.84A1.07,1.07,0,0,1,18,22h0a1.07,1.07,0,0,1-.24-1.46l2.85-2.83a1.08,1.08,0,0,1,1.47.24h0A1.06,1.06,0,0,1,22.3,19.42Z"/><line class="cls-1" x1="15.25" y1="15.23" x2="19.18" y2="19.15"/></svg>